{
.appVersion = "3436";
.formatVersion = 3;
DisplayStrings = (
abcdefghijklmnopqrstuvwxyz,
aaaaa,
ELEVATE,
HOHOHO
);
axes = (
{
name = Weight;
tag = wght;
}
);
date = "2025-06-22 16:38:40 +0000";
familyName = "Juncture-condensed";
fontMaster = (
{
axesValues = (
600
);
id = m002;
metricValues = (
{
pos = 680;
},
{
over = 12;
pos = 650;
},
{
over = 12;
pos = 450;
},
{
over = -12;
},
{
over = -12;
pos = -200;
},
{
}
);
name = "semibold-600";
userData = {
GSCornerRadius = 5;
GSExtrudeAngle = 30;
GSExtrudeOffset = 15;
GSOffsetHorizontal = 15;
GSOffsetVertical = 10;
};
},
{
axesValues = (
400
);
id = "1B8EDE0E-D46F-48F9-B9C6-2CD34FEA95FD";
metricValues = (
{
pos = 680;
},
{
over = 12;
pos = 650;
},
{
over = 12;
pos = 450;
},
{
over = -12;
},
{
over = -12;
pos = -200;
},
{
}
);
name = Regular;
userData = {
GSCornerRadius = 15;
"Letterink-NibData" = {
AngleInDegrees = 45;
MainAxisWidth = 30;
MinorAxisWidth = 15;
};
};
}
);
glyphs = (
{
glyphname = A;
lastChange = "2025-11-30 21:02:43 +0000";
layers = (
{
anchors = (
{
name = bottom;
pos = (122,0);
},
{
name = ogonek;
pos = (366,10);
},
{
name = top;
pos = (122,650);
}
);
layerId = m002;
shapes = (
{
closed = 1;
nodes = (
(188,549,l),
(158,549,l),
(217,0,l),
(325,0,l),
(232,650,l),
(113,650,l),
(10,0,l),
(118,0,l)
);
},
{
closed = 1;
nodes = (
(119,112,l),
(217,112,l),
(217,196,l),
(119,196,l)
);
}
);
width = 335;
},
{
layerId = "1B8EDE0E-D46F-48F9-B9C6-2CD34FEA95FD";
shapes = (
{
closed = 1;
nodes = (
(208,222,l),
(83,222,l),
(84,148,l),
(209,148,l)
);
},
{
closed = 1;
nodes = (
(83,0,ls),
(92,0,o),
(98,4,o),
(99,14,cs),
(164,570,l),
(136,570,l),
(200,14,ls),
(201,4,o),
(207,0,o),
(216,0,cs),
(276,0,ls),
(286,0,o),
(291,6,o),
(290,16,cs),
(197,636,ls),
(196,646,o),
(190,650,o),
(181,650,cs),
(122,650,ls),
(113,650,o),
(107,646,o),
(106,636,cs),
(13,16,ls),
(12,6,o),
(17,0,o),
(27,0,cs)
);
}
);
width = 303;
}
);
metricRight = "=|";
unicode = 65;
},
{
glyphname = B;
lastChange = "2025-11-24 21:32:49 +0000";
layers = (
{
anchors = (
{
name = bottom;
pos = (236,0);
},
{
name = center;
pos = (93,163);
},
{
name = top;
pos = (236,650);
}
);
layerId = m002;
shapes = (
{
closed = 1;
nodes = (
(20,0,l),
(126,0,l),
(126,650,l),
(20,650,l)
);
},
{
closed = 1;
nodes = (
(217,117,o),
(201,74,o),
(151,74,cs),
(126,74,l),
(126,0,l),
(166,0,ls),
(286,0,o),
(317,75,o),
(317,187,cs),
(317,305,o),
(251,360,o),
(166,360,cs),
(126,360,l),
(126,286,l),
(151,286,ls),
(201,286,o),
(217,239,o),
(217,183,cs)
);
},
{
closed = 1;
nodes = (
(200,390,o),
(183,380,o),
(154,380,cs),
(126,380,l),
(126,306,l),
(147,306,ls),
(226,306,o),
(298,361,o),
(298,478,cs),
(298,590,o),
(226,650,o),
(147,650,cs),
(126,650,l),
(126,556,l),
(154,556,ls),
(181,556,o),
(200,526,o),
(200,470,cs)
);
}
);
width = 337;
},
{
layerId = "1B8EDE0E-D46F-48F9-B9C6-2CD34FEA95FD";
shapes = (
{
closed = 1;
nodes = (
(120,0,l),
(120,72,l),
(99,72,l),
(99,294,l),
(130,294,l),
(130,364,l),
(99,364,l),
(99,578,l),
(111,578,l),
(111,650,l),
(10,650,l),
(10,0,l)
);
},
{
closed = 1;
nodes = (
(222,309,o),
(247,370,o),
(247,471,c),
(247,561,o),
(215,650,o),
(111,650,c),
(111,578,l),
(168,578,o),
(159,517,o),
(159,473,c),
(159,428,o),
(161,364,o),
(111,364,c),
(111,309,l)
);
},
{
closed = 1;
nodes = (
(230,0,o),
(260,49,o),
(260,181,cs),
(260,315,o),
(173,361,o),
(119,361,c),
(119,294,l),
(173,294,o),
(172,241,o),
(172,181,c),
(172,125,o),
(186,72,o),
(119,72,c),
(119,0,l)
);
}
);
width = 290;
}
);
metricLeft = "=H";
unicode = 66;
},
{
glyphname = C;
lastChange = "2025-11-10 21:18:17 +0000";
layers = (
{
anchors = (
{
name = bottom;
pos = (-120,0);
},
{
name = center;
pos = (-120,325);
},
{
name = ogonek;
pos = (-395,10);
},
{
name = top;
pos = (-120,650);
},
{
name = topleft;
pos = (204,650);
},
{
name = topright;
pos = (-444,650);
}
);
layerId = m002;
shapes = (
{
closed = 1;
nodes = (
(206,206,l),
(206,130,ls),
(206,94,o),
(186,81,o),
(163,81,cs),
(140,81,o),
(120,94,o),
(120,130,cs),
(120,510,ls),
(120,556,o),
(140,569,o),
(163,569,cs),
(186,569,o),
(206,556,o),
(206,510,cs),
(206,451,l),
(304,451,l),
(304,485,ls),
(304,617,o),
(245,662,o),
(166,662,cs),
(166,662,ls),
(87,662,o),
(20,617,o),
(20,485,cs),
(20,165,ls),
(20,33,o),
(80,-12,o),
(159,-12,cs),
(166,-12,ls),
(245,-12,o),
(304,33,o),
(304,165,cs),
(304,206,l)
);
}
);
width = 324;
},
{
layerId = "1B8EDE0E-D46F-48F9-B9C6-2CD34FEA95FD";
shapes = (
{
closed = 1;
nodes = (
(338,450,l),
(338,489,ls),
(338,610,o),
(244,662,o),
(174,662,cs),
(104,662,o),
(10,610,o),
(10,489,cs),
(10,147,ls),
(10,40,o),
(104,-12,o),
(174,-12,cs),
(244,-12,o),
(338,40,o),
(338,147,cs),
(338,181,l),
(250,181,l),
(250,141,ls),
(250,98,o),
(216,65,o),
(174,64,cs),
(132,63,o),
(98,98,o),
(98,141,cs),
(98,495,ls),
(98,552,o),
(132,587,o),
(174,586,cs),
(216,585,o),
(250,552,o),
(250,495,cs),
(250,450,l)
);
}
);
width = 348;
}
);
metricLeft = "=O";
metricRight = "=O";
unicode = 67;
},
{
glyphname = D;
lastChange = "2025-11-10 21:18:17 +0000";
layers = (
{
anchors = (
{
name = bottom;
pos = (264,0);
},
{
name = center;
pos = (107,325);
},
{
name = top;
pos = (264,650);
}
);
layerId = m002;
shapes = (
{
closed = 1;
nodes = (
(20,0,l),
(125,0,l),
(125,650,l),
(20,650,l)
);
},
{
closed = 1;
nodes = (
(195,163,ls),
(195,117,o),
(185,94,o),
(152,94,cs),
(125,94,l),
(125,0,l),
(155,0,ls),
(234,0,o),
(300,45,o),
(300,177,cs),
(300,473,ls),
(300,605,o),
(234,650,o),
(155,650,cs),
(125,650,l),
(125,556,l),
(152,556,ls),
(185,556,o),
(195,533,o),
(195,487,cs)
);
}
);
width = 320;
},
{
layerId = "1B8EDE0E-D46F-48F9-B9C6-2CD34FEA95FD";
shapes = (
{
closed = 1;
nodes = (
(174,650,l),
(10,650,l),
(10,0,l),
(174,0,l),
(174,76,l),
(99,76,l),
(99,574,l),
(174,574,l)
);
},
{
closed = 1;
nodes = (
(174,0,l),
(244,0,o),
(338,52,o),
(338,159,cs),
(338,477,ls),
(338,598,o),
(244,650,o),
(174,650,c),
(174,574,l),
(216,573,o),
(250,540,o),
(250,483,cs),
(250,153,ls),
(250,110,o),
(216,77,o),
(174,76,c)
);
}
);
width = 348;
}
);
metricLeft = "=H";
metricRight = "=O";
unicode = 68;
},
{
glyphname = E;
lastChange = "2025-11-10 21:18:17 +0000";
layers = (
{
anchors = (
{
name = bottom;
pos = (232,0);
},
{
name = ogonek;
pos = (457,10);
},
{
name = top;
pos = (232,650);
},
{
name = topleft;
pos = (-30,650);
}
);
layerId = m002;
shapes = (
{
closed = 1;
nodes = (
(20,0,l),
(265,0,l),
(265,95,l),
(126,95,l),
(126,290,l),
(208,290,l),
(208,385,l),
(126,385,l),
(126,555,l),
(265,555,l),
(265,650,l),
(20,650,l)
);
}
);
width = 285;
},
{
layerId = "1B8EDE0E-D46F-48F9-B9C6-2CD34FEA95FD";
shapes = (
{
closed = 1;
nodes = (
(233,0,l),
(233,74,l),
(99,74,l),
(99,300,l),
(208,300,l),
(208,376,l),
(99,376,l),
(99,576,l),
(233,576,l),
(233,650,l),
(10,650,l),
(10,0,l)
);
}
);
width = 243;
}
);
metricLeft = "=H";
metricRight = "=H";
unicode = 69;
},
{
glyphname = F;
lastChange = "2025-11-10 21:18:17 +0000";
layers = (
{
anchors = (
{
name = bottom;
pos = (277,0);
},
{
name = top;
pos = (277,650);
}
);
layerId = m002;
shapes = (
{
closed = 1;
nodes = (
(20,0,l),
(126,0,l),
(126,238,l),
(218,238,l),
(218,333,l),
(126,333,l),
(126,555,l),
(275,555,l),
(275,650,l),
(20,650,l)
);
}
);
width = 295;
},
{
layerId = "1B8EDE0E-D46F-48F9-B9C6-2CD34FEA95FD";
shapes = (
{
closed = 1;
nodes = (
(99,0,l),
(99,260,l),
(208,260,l),
(208,337,l),
(99,337,l),
(99,573,l),
(233,573,l),
(233,650,l),
(10,650,l),
(10,0,l)
);
}
);
width = 243;
}
);
metricLeft = "=H";
metricRight = "=|";
unicode = 70;
},
{
glyphname = G;
lastChange = "2025-11-10 21:18:17 +0000";
layers = (
{
anchors = (
{
name = bottom;
pos = (319,0);
},
{
name = top;
pos = (319,650);
}
);
layerId = m002;
shapes = (
{
closed = 1;
nodes = (
(206,211,l),
(206,130,ls),
(206,94,o),
(186,81,o),
(163,81,cs),
(140,81,o),
(120,94,o),
(120,130,cs),
(120,510,ls),
(120,556,o),
(140,569,o),
(163,569,cs),
(186,569,o),
(206,556,o),
(206,510,cs),
(206,451,l),
(304,451,l),
(304,485,ls),
(304,617,o),
(245,662,o),
(166,662,cs),
(87,662,o),
(20,617,o),
(20,485,cs),
(20,165,ls),
(20,33,o),
(80,-12,o),
(159,-12,cs),
(266,-12,o),
(274,93,o),
(274,165,cs),
(274,211,l)
);
},
{
closed = 1;
nodes = (
(209,211,l),
(254,0,l),
(304,0,l),
(304,301,l),
(162,301,l),
(162,211,l)
);
}
);
width = 324;
},
{
layerId = "1B8EDE0E-D46F-48F9-B9C6-2CD34FEA95FD";
shapes = (
{
closed = 1;
nodes = (
(338,-1,l),
(338,326,l),
(191,326,l),
(191,233,l),
(260,233,l),
(260,61,l),
(267,56,l),
(284,-1,l)
);
},
{
closed = 1;
nodes = (
(338,450,l),
(338,489,ls),
(338,610,o),
(244,662,o),
(174,662,cs),
(104,662,o),
(10,610,o),
(10,489,cs),
(10,147,ls),
(10,40,o),
(104,-12,o),
(161,-12,cs),
(234,-12,o),
(308,40,o),
(308,147,cs),
(308,181,l),
(260,181,l),
(260,141,ls),
(260,98,o),
(216,65,o),
(174,64,cs),
(132,63,o),
(98,98,o),
(98,141,cs),
(98,495,ls),
(98,552,o),
(132,587,o),
(174,586,cs),
(216,585,o),
(250,552,o),
(250,495,cs),
(250,450,l)
);
}
);
width = 348;
}
);
metricLeft = "=O";
metricRight = "=O";
unicode = 71;
},
{
glyphname = H;
lastChange = "2025-11-10 21:18:57 +0000";
layers = (
{
anchors = (
{
name = bottom;
pos = (268,0);
},
{
name = center;
pos = (268,488);
},
{
name = top;
pos = (268,650);
},
{
name = topleft;
pos = (-30,650);
}
);
layerId = m002;
shapes = (
{
closed = 1;
nodes = (
(20,2,l),
(125,2,l),
(125,287,l),
(211,287,l),
(211,2,l),
(316,2,l),
(316,650,l),
(211,650,l),
(211,381,l),
(125,381,l),
(125,650,l),
(20,650,l)
);
}
);
width = 336;
},
{
anchors = (
{
name = bottom;
pos = (257,0);
},
{
name = center;
pos = (257,488);
},
{
name = top;
pos = (257,650);
},
{
name = topleft;
pos = (-40,650);
}
);
layerId = "1B8EDE0E-D46F-48F9-B9C6-2CD34FEA95FD";
shapes = (
{
closed = 1;
nodes = (
(10,2,l),
(99,2,l),
(99,296,l),
(234,296,l),
(234,2,l),
(323,2,l),
(323,650,l),
(234,650,l),
(234,372,l),
(99,372,l),
(99,650,l),
(10,650,l)
);
}
);
width = 333;
}
);
metricRight = "=|";
unicode = 72;
},
{
glyphname = I;
lastChange = "2025-11-10 21:18:17 +0000";
layers = (
{
anchors = (
{
name = bottom;
pos = (76,0);
},
{
name = ogonek;
pos = (177,10);
},
{
name = top;
pos = (76,650);
},
{
name = topleft;
pos = (-30,650);
}
);
layerId = m002;
shapes = (
{
closed = 1;
nodes = (
(20,650,l),
(20,0,l),
(125,0,l),
(125,650,l)
);
}
);
width = 145;
},
{
anchors = (
{
name = bottom;
pos = (57,0);
},
{
name = ogonek;
pos = (153,10);
},
{
name = top;
pos = (57,650);
},
{
name = topleft;
pos = (-43,650);
}
);
layerId = "1B8EDE0E-D46F-48F9-B9C6-2CD34FEA95FD";
shapes = (
{
closed = 1;
nodes = (
(10,650,l),
(10,0,l),
(99,0,l),
(99,650,l)
);
}
);
width = 109;
}
);
metricLeft = H;
metricRight = H;
unicode = 73;
},
{
glyphname = J;
lastChange = "2025-11-10 21:18:17 +0000";
layers = (
{
anchors = (
{
name = bottom;
pos = (245,0);
},
{
name = top;
pos = (245,650);
}
);
layerId = m002;
shapes = (
{
closed = 1;
nodes = (
(188,650,l),
(188,130,ls),
(188,94,o),
(168,81,o),
(148,81,cs),
(128,81,o),
(108,94,o),
(108,130,cs),
(108,165,l),
(10,165,l),
(10,165,ls),
(10,33,o),
(69,-12,o),
(145,-12,cs),
(152,-12,ls),
(228,-12,o),
(288,33,o),
(288,165,cs),
(288,650,l)
);
}
);
width = 308;
},
{
anchors = (
{
name = bottom;
pos = (214,0);
},
{
name = top;
pos = (214,650);
}
);
layerId = "1B8EDE0E-D46F-48F9-B9C6-2CD34FEA95FD";
shapes = (
{
closed = 1;
nodes = (
(274,-12,o),
(359,25,o),
(359,172,cs),
(359,650,l),
(270,650,l),
(270,172,ls),
(270,88,o),
(228,64,o),
(178,64,cs),
(128,64,o),
(87,88,o),
(87,172,c),
(87,197,l),
(0,197,l),
(0,172,l),
(0,25,o),
(83,-12,o),
(178,-12,cs)
);
}
);
width = 369;
}
);
metricLeft = "=O-10";
metricRight = "=H";
unicode = 74;
},
{
glyphname = K;
lastChange = "2025-11-10 21:18:17 +0000";
layers = (
{
anchors = (
{
name = bottom;
pos = (263,0);
},
{
name = top;
pos = (263,650);
}
);
layerId = m002;
shapes = (
{
closed = 1;
nodes = (
(126,1,l),
(126,234,l),
(138,264,l),
(192,0,l),
(304,0,l),
(187,429,l),
(183,344,l),
(295,650,l),
(190,650,l),
(126,454,l),
(126,650,l),
(20,650,l),
(20,1,l)
);
}
);
width = 314;
},
{
anchors = (
{
name = bottom;
pos = (244,0);
},
{
name = top;
pos = (244,650);
}
);
layerId = "1B8EDE0E-D46F-48F9-B9C6-2CD34FEA95FD";
shapes = (
{
closed = 1;
nodes = (
(99,1,l),
(99,267,l),
(69,184,l),
(218,360,l),
(163,364,l),
(388,0,l),
(484,0,l),
(221,431,l),
(215,355,l),
(466,650,l),
(369,650,l),
(68,310,l),
(99,298,l),
(99,650,l),
(10,650,l),
(10,1,l)
);
}
);
width = 504;
}
);
metricLeft = "=H";
unicode = 75;
},
{
glyphname = L;
lastChange = "2025-11-10 21:18:17 +0000";
layers = (
{
anchors = (
{
name = bottom;
pos = (202,0);
},
{
name = center;
pos = (202,325);
},
{
name = top;
pos = (202,650);
},
{
name = topright;
pos = (434,650);
}
);
layerId = m002;
shapes = (
{
closed = 1;
nodes = (
(253,0,l),
(253,95,l),
(126,95,l),
(126,650,l),
(20,650,l),
(20,0,l)
);
}
);
width = 273;
},
{
anchors = (
{
name = bottom;
pos = (187,0);
},
{
name = center;
pos = (187,325);
},
{
name = top;
pos = (187,650);
},
{
name = topright;
pos = (418,650);
}
);
layerId = "1B8EDE0E-D46F-48F9-B9C6-2CD34FEA95FD";
shapes = (
{
closed = 1;
nodes = (
(211,0,l),
(211,76,l),
(99,76,l),
(99,650,l),
(10,650,l),
(10,0,l)
);
}
);
width = 221;
}
);
metricLeft = "=H";
metricRight = "=O";
unicode = 76;
},
{
glyphname = M;
lastChange = "2025-11-10 21:18:17 +0000";
layers = (
{
anchors = (
{
name = bottom;
pos = (361,0);
},
{
name = top;
pos = (361,650);
}
);
layerId = m002;
shapes = (
{
closed = 1;
nodes = (
(124,1,l),
(124,337,l),
(108,343,l),
(181,0,l),
(269,0,l),
(342,333,l),
(326,327,l),
(326,1,l),
(430,1,l),
(430,650,l),
(324,650,l),
(208,189,l),
(242,189,l),
(126,650,l),
(20,650,l),
(20,1,l)
);
}
);
width = 450;
},
{
anchors = (
{
name = bottom;
pos = (331,0);
},
{
name = top;
pos = (331,650);
}
);
layerId = "1B8EDE0E-D46F-48F9-B9C6-2CD34FEA95FD";
shapes = (
{
closed = 1;
nodes = (
(99,1,l),
(99,483,l),
(80,468,l),
(180,130,l),
(267,130,l),
(368,468,l),
(350,483,l),
(350,1,l),
(438,1,l),
(438,650,l),
(368,650,l),
(209,209,l),
(239,209,l),
(80,650,l),
(10,650,l),
(10,1,l)
);
}
);
width = 448;
}
);
metricLeft = H;
metricRight = H;
unicode = 77;
},
{
glyphname = N;
lastChange = "2025-11-10 21:18:17 +0000";
layers = (
{
anchors = (
{
name = bottom;
pos = (284,0);
},
{
name = top;
pos = (284,650);
}
);
layerId = m002;
shapes = (
{
closed = 1;
nodes = (
(20,0,l),
(124,0,l),
(124,453,l),
(102,453,l),
(218,0,l),
(322,0,l),
(322,650,l),
(218,650,l),
(218,270,l),
(240,270,l),
(124,650,l),
(20,650,l)
);
}
);
width = 342;
},
{
anchors = (
{
name = bottom;
pos = (275,0);
},
{
name = top;
pos = (275,650);
}
);
layerId = "1B8EDE0E-D46F-48F9-B9C6-2CD34FEA95FD";
shapes = (
{
closed = 1;
nodes = (
(10,0,l),
(99,0,l),
(99,531,l),
(62,494,l),
(224,0,l),
(299,0,l),
(299,650,l),
(210,650,l),
(210,116,l),
(249,152,l),
(87,650,l),
(10,650,l)
);
}
);
width = 309;
}
);
metricLeft = H;
metricRight = "=|";
unicode = 78;
},
{
glyphname = O;
lastChange = "2025-11-10 21:18:11 +0000";
layers = (
{
anchors = (
{
name = bottom;
pos = (-120,0);
},
{
name = center;
pos = (-120,325);
},
{
name = ogonek;
pos = (-395,10);
},
{
name = top;
pos = (-120,650);
},
{
name = topleft;
pos = (204,650);
},
{
name = topright;
pos = (-444,650);
}
);
layerId = m002;
shapes = (
{
closed = 1;
nodes = (
(212,130,ls),
(212,94,o),
(192,81,o),
(169,81,cs),
(146,81,o),
(126,94,o),
(126,130,cs),
(126,509,ls),
(126,555,o),
(146,568,o),
(169,568,cs),
(192,568,o),
(212,555,o),
(212,509,cs)
);
},
{
closed = 1;
nodes = (
(20,33,o),
(86,-12,o),
(165,-12,cs),
(172,-12,ls),
(251,-12,o),
(317,33,o),
(317,165,cs),
(317,485,ls),
(317,617,o),
(251,662,o),
(172,662,cs),
(165,662,ls),
(86,662,o),
(20,617,o),
(20,485,cs),
(20,165,ls)
);
}
);
width = 337;
},
{
layerId = "1B8EDE0E-D46F-48F9-B9C6-2CD34FEA95FD";
shapes = (
{
closed = 1;
nodes = (
(244,-12,o),
(338,40,o),
(338,147,cs),
(338,489,ls),
(338,610,o),
(244,662,o),
(174,662,cs),
(104,662,o),
(10,610,o),
(10,489,cs),
(10,147,ls),
(10,40,o),
(104,-12,o),
(174,-12,cs)
);
},
{
closed = 1;
nodes = (
(132,63,o),
(98,98,o),
(98,141,cs),
(98,495,ls),
(98,552,o),
(132,587,o),
(174,586,cs),
(216,585,o),
(250,552,o),
(250,495,cs),
(250,141,ls),
(250,98,o),
(216,65,o),
(174,64,cs)
);
}
);
width = 348;
}
);
metricRight = "=|";
unicode = 79;
},
{
glyphname = P;
lastChange = "2025-11-10 21:18:17 +0000";
layers = (
{
anchors = (
{
name = bottom;
pos = (218,0);
},
{
name = top;
pos = (218,650);
}
);
layerId = m002;
shapes = (
{
closed = 1;
nodes = (
(20,0,l),
(126,0,l),
(126,650,l),
(20,650,l)
);
},
{
closed = 1;
nodes = (
(186,389,ls),
(186,343,o),
(176,320,o),
(142,320,cs),
(126,320,l),
(126,226,l),
(166,226,ls),
(235,226,o),
(291,301,o),
(291,443,cs),
(291,586,o),
(235,650,o),
(166,650,cs),
(126,650,l),
(126,556,l),
(143,556,ls),
(176,556,o),
(186,533,o),
(186,487,cs)
);
}
);
width = 311;
},
{
layerId = "1B8EDE0E-D46F-48F9-B9C6-2CD34FEA95FD";
shapes = (
{
closed = 1;
nodes = (
(99,0,l),
(99,650,l),
(10,650,l),
(10,0,l)
);
},
{
closed = 1;
nodes = (
(87,306,l),
(87,230,l),
(134,230,ls),
(204,230,o),
(298,282,o),
(298,389,cs),
(298,477,ls),
(298,598,o),
(204,650,o),
(134,650,cs),
(87,650,l),
(87,574,l),
(134,573,ls),
(176,573,o),
(210,540,o),
(210,483,cs),
(210,383,ls),
(210,340,o),
(176,307,o),
(134,307,cs)
);
}
);
width = 308;
}
);
metricLeft = "=H";
metricRight = O;
unicode = 80;
},
{
glyphname = Q;
lastChange = "2025-11-10 21:18:17 +0000";
layers = (
{
anchors = (
{
name = bottom;
pos = (-120,0);
},
{
name = center;
pos = (-120,325);
},
{
name = ogonek;
pos = (-395,10);
},
{
name = top;
pos = (-120,650);
},
{
name = topleft;
pos = (204,650);
},
{
name = topright;
pos = (-444,650);
}
);
layerId = m002;
shapes = (
{
closed = 1;
nodes = (
(212,130,ls),
(212,94,o),
(192,81,o),
(169,81,cs),
(146,81,o),
(126,94,o),
(126,130,cs),
(126,510,ls),
(126,556,o),
(146,569,o),
(169,569,cs),
(192,569,o),
(212,556,o),
(212,510,cs)
);
},
{
closed = 1;
nodes = (
(20,33,o),
(86,-12,o),
(165,-12,cs),
(172,-12,ls),
(251,-12,o),
(317,33,o),
(317,165,cs),
(317,485,ls),
(317,617,o),
(251,662,o),
(172,662,cs),
(165,662,ls),
(86,662,o),
(20,617,o),
(20,485,cs),
(20,165,ls)
);
},
{
closed = 1;
nodes = (
(351,0,l),
(274,92,l),
(193,24,l),
(270,-68,l)
);
}
);
width = 343;
},
{
layerId = "1B8EDE0E-D46F-48F9-B9C6-2CD34FEA95FD";
shapes = (
{
closed = 1;
nodes = (
(208,45,l),
(278,-77,l),
(358,-30,l),
(287,91,l)
);
},
{
closed = 1;
nodes = (
(244,-12,o),
(338,40,o),
(338,147,cs),
(338,489,ls),
(338,610,o),
(244,662,o),
(174,662,cs),
(104,662,o),
(10,610,o),
(10,489,cs),
(10,147,ls),
(10,40,o),
(104,-12,o),
(174,-12,cs)
);
},
{
closed = 1;
nodes = (
(132,63,o),
(98,98,o),
(98,141,cs),
(98,495,ls),
(98,552,o),
(132,587,o),
(174,586,cs),
(216,585,o),
(250,552,o),
(250,495,cs),
(250,141,ls),
(250,98,o),
(216,65,o),
(174,64,cs)
);
}
);
width = 340;
}
);
metricLeft = "=O";
metricRight = "=O-28";
unicode = 81;
},
{
glyphname = R;
lastChange = "2025-11-10 21:18:17 +0000";
layers = (
{
anchors = (
{
name = bottom;
pos = (241,0);
},
{
name = top;
pos = (241,650);
}
);
layerId = m002;
shapes = (
{
closed = 1;
nodes = (
(126,0,l),
(126,650,l),
(20,650,l),
(20,0,l)
);
},
{
closed = 1;
nodes = (
(126,323,l),
(217,-1,l),
(323,-1,l),
(232,323,l)
);
},
{
closed = 1;
nodes = (
(186,389,ls),
(186,343,o),
(176,320,o),
(142,320,cs),
(126,320,l),
(126,226,l),
(166,226,ls),
(235,226,o),
(291,301,o),
(291,443,cs),
(291,586,o),
(235,650,o),
(166,650,cs),
(126,650,l),
(126,556,l),
(143,556,ls),
(176,556,o),
(186,533,o),
(186,487,cs)
);
}
);
width = 343;
},
{
layerId = "1B8EDE0E-D46F-48F9-B9C6-2CD34FEA95FD";
shapes = (
{
closed = 1;
nodes = (
(339,0,l),
(235,324,l),
(154,324,l),
(253,0,l)
);
},
{
closed = 1;
nodes = (
(99,0,l),
(99,650,l),
(10,650,l),
(10,0,l)
);
},
{
closed = 1;
nodes = (
(87,352,l),
(87,276,l),
(154,276,ls),
(224,276,o),
(318,328,o),
(318,435,cs),
(318,477,ls),
(318,598,o),
(224,650,o),
(154,650,cs),
(87,650,l),
(87,574,l),
(154,573,ls),
(196,573,o),
(230,540,o),
(230,483,cs),
(230,429,ls),
(230,386,o),
(196,353,o),
(154,353,cs)
);
}
);
width = 349;
}
);
metricLeft = H;
metricRight = O;
unicode = 82;
},
{
glyphname = S;
lastChange = "2025-11-10 21:18:17 +0000";
layers = (
{
anchors = (
{
name = bottom;
pos = (239,0);
},
{
name = top;
pos = (239,650);
}
);
layerId = m002;
shapes = (
{
closed = 1;
nodes = (
(20,410,o),
(71,347,o),
(115,299,cs),
(167,243,ls),
(191,217,o),
(204,183,o),
(204,152,cs),
(204,94,o),
(184,81,o),
(161,81,cs),
(138,81,o),
(118,94,o),
(118,130,cs),
(118,206,l),
(20,206,l),
(20,165,ls),
(20,33,o),
(79,-12,o),
(158,-12,cs),
(165,-12,ls),
(244,-12,o),
(300,34,o),
(300,139,cs),
(300,218,o),
(278,266,o),
(246,306,cs),
(192,372,ls),
(158,413,o),
(120,447,o),
(120,505,cs),
(120,556,o),
(140,569,o),
(163,569,cs),
(186,569,o),
(206,556,o),
(206,510,cs),
(206,451,l),
(304,451,l),
(304,485,ls),
(304,594,o),
(245,662,o),
(166,662,cs),
(87,662,o),
(20,608,o),
(20,485,cs)
);
}
);
width = 324;
},
{
layerId = "1B8EDE0E-D46F-48F9-B9C6-2CD34FEA95FD";
shapes = (
{
closed = 1;
nodes = (
(10,182,l),
(10,147,ls),
(10,40,o),
(104,-12,o),
(174,-12,cs),
(244,-12,o),
(338,40,o),
(338,147,cs),
(338,231,o),
(294,278,o),
(244,320,cs),
(174,378,ls),
(132,414,o),
(98,451,o),
(98,495,cs),
(98,552,o),
(122,587,o),
(164,586,cs),
(206,585,o),
(230,552,o),
(230,495,cs),
(230,450,l),
(318,450,l),
(318,489,ls),
(318,610,o),
(234,662,o),
(164,662,cs),
(94,662,o),
(10,610,o),
(10,489,cs),
(10,404,o),
(60,359,o),
(114,312,cs),
(185,254,ls),
(218,227,o),
(250,205,o),
(250,141,cs),
(250,98,o),
(216,65,o),
(174,64,cs),
(132,63,o),
(98,98,o),
(98,141,cs),
(98,182,l)
);
}
);
width = 348;
}
);
metricLeft = O;
metricRight = "=|";
unicode = 83;
},
{
glyphname = T;
lastChange = "2025-11-10 20:54:44 +0000";
layers = (
{
anchors = (
{
name = bottom;
pos = (267,0);
},
{
name = center;
pos = (267,325);
},
{
name = top;
pos = (267,650);
}
);
layerId = m002;
shapes = (
{
closed = 1;
nodes = (
(10,650,l),
(10,556,l),
(100,556,l),
(100,2,l),
(206,2,l),
(206,556,l),
(294,556,l),
(294,650,l)
);
}
);
width = 304;
},
{
anchors = (
{
name = bottom;
pos = (160,0);
},
{
name = center;
pos = (160,325);
},
{
name = top;
pos = (160,650);
}
);
layerId = "1B8EDE0E-D46F-48F9-B9C6-2CD34FEA95FD";
shapes = (
{
closed = 1;
nodes = (
(20,650,l),
(20,574,l),
(109,574,l),
(109,2,l),
(197,2,l),
(197,574,l),
(286,574,l),
(286,650,l)
);
}
);
width = 306;
}
);
metricRight = "=|";
unicode = 84;
},
{
glyphname = U;
lastChange = "2025-11-10 21:18:17 +0000";
layers = (
{
anchors = (
{
name = bottom;
pos = (292,0);
},
{
name = ogonek;
pos = (538,10);
},
{
name = top;
pos = (292,650);
},
{
name = topright;
pos = (580,650);
}
);
layerId = m002;
shapes = (
{
closed = 1;
nodes = (
(202,650,l),
(202,130,ls),
(202,94,o),
(182,81,o),
(159,81,cs),
(136,81,o),
(116,94,o),
(116,130,cs),
(116,650,l),
(10,650,l),
(10,165,ls),
(10,33,o),
(76,-12,o),
(155,-12,cs),
(162,-12,ls),
(241,-12,o),
(307,33,o),
(307,165,cs),
(307,650,l)
);
}
);
width = 317;
},
{
layerId = "1B8EDE0E-D46F-48F9-B9C6-2CD34FEA95FD";
shapes = (
{
closed = 1;
nodes = (
(240,650,l),
(240,141,ls),
(240,98,o),
(206,65,o),
(164,64,cs),
(122,63,o),
(88,98,o),
(88,141,cs),
(88,650,l),
(0,650,l),
(0,147,ls),
(0,40,o),
(94,-12,o),
(164,-12,cs),
(234,-12,o),
(328,40,o),
(328,147,cs),
(328,650,l)
);
}
);
width = 328;
}
);
metricLeft = "=H-10";
metricRight = "=|";
unicode = 85;
},
{
glyphname = V;
lastChange = "2025-11-10 21:18:14 +0000";
layers = (
{
anchors = (
{
name = bottom;
pos = (268,0);
},
{
name = top;
pos = (268,650);
}
);
layerId = m002;
shapes = (
{
closed = 1;
nodes = (
(181,163,l),
(124,650,l),
(10,650,l),
(121,0,l),
(215,0,l),
(326,650,l),
(212,650,l),
(155,163,l)
);
}
);
width = 336;
},
{
anchors = (
{
name = bottom;
pos = (200,0);
},
{
name = top;
pos = (200,650);
}
);
layerId = "1B8EDE0E-D46F-48F9-B9C6-2CD34FEA95FD";
shapes = (
{
closed = 1;
nodes = (
(236,0,l),
(378,650,l),
(288,650,l),
(181,80,l),
(212,80,l),
(103,650,l),
(11,650,l),
(153,0,l)
);
}
);
width = 389;
}
);
metricLeft = "=A";
metricRight = "=|";
unicode = 86;
},
{
glyphname = W;
lastChange = "2025-11-10 21:18:17 +0000";
layers = (
{
anchors = (
{
name = bottom;
pos = (255,0);
},
{
name = top;
pos = (244,650);
}
);
layerId = m002;
shapes = (
{
closed = 1;
nodes = (
(215,0,l),
(277,380,l),
(261,380,l),
(323,0,l),
(417,0,l),
(528,650,l),
(414,650,l),
(364,232,l),
(376,232,l),
(326,650,l),
(212,650,l),
(162,232,l),
(174,232,l),
(124,650,l),
(10,650,l),
(121,0,l)
);
}
);
width = 538;
},
{
anchors = (
{
name = bottom;
pos = (435,0);
},
{
name = top;
pos = (427,650);
}
);
layerId = "1B8EDE0E-D46F-48F9-B9C6-2CD34FEA95FD";
shapes = (
{
closed = 1;
nodes = (
(192,0,l),
(271,0,l),
(430,560,l),
(394,559,l),
(553,0,l),
(634,0,l),
(816,650,l),
(727,650,l),
(572,73,l),
(621,73,l),
(462,650,l),
(366,650,l),
(210,73,l),
(258,73,l),
(103,650,l),
(11,650,l)
);
}
);
width = 827;
}
);
metricLeft = "=A";
metricRight = "=|";
unicode = 87;
},
{
glyphname = X;
lastChange = "2025-11-10 20:16:13 +0000";
layers = (
{
anchors = (
{
name = bottom;
pos = (294,0);
},
{
name = top;
pos = (294,650);
}
);
layerId = m002;
shapes = (
{
closed = 1;
nodes = (
(310,1,l),
(130,650,l),
(25,650,l),
(206,1,l)
);
},
{
closed = 1;
nodes = (
(204,247,l),
(315,650,l),
(210,650,l),
(141,406,l)
);
},
{
closed = 1;
nodes = (
(121,406,l),
(10,1,l),
(114,1,l),
(184,247,l)
);
}
);
width = 325;
},
{
layerId = "1B8EDE0E-D46F-48F9-B9C6-2CD34FEA95FD";
shapes = (
{
closed = 1;
nodes = (
(536,1,l),
(133,650,l),
(32,650,l),
(435,1,l)
);
},
{
closed = 1;
nodes = (
(314,299,l),
(530,650,l),
(429,650,l),
(260,374,l)
);
},
{
closed = 1;
nodes = (
(121,1,l),
(304,299,l),
(250,374,l),
(21,1,l)
);
}
);
width = 557;
}
);
metricRight = "=|";
unicode = 88;
},
{
glyphname = Y;
lastChange = "2025-11-10 21:18:17 +0000";
layers = (
{
anchors = (
{
name = bottom;
pos = (184,0);
},
{
name = top;
pos = (184,650);
},
{
name = topleft;
pos = (-87,650);
}
);
layerId = m002;
shapes = (
{
closed = 1;
nodes = (
(129,259,l),
(129,0,l),
(233,0,l),
(233,259,l),
(352,650,l),
(236,650,l),
(160,327,l),
(196,327,l),
(126,650,l),
(10,650,l)
);
}
);
width = 362;
},
{
anchors = (
{
name = bottom;
pos = (275,0);
},
{
name = top;
pos = (253,650);
},
{
name = topleft;
pos = (17,650);
}
);
layerId = "1B8EDE0E-D46F-48F9-B9C6-2CD34FEA95FD";
shapes = (
{
closed = 1;
nodes = (
(209,264,l),
(209,0,l),
(297,0,l),
(297,264,l),
(495,650,l),
(407,650,l),
(232,304,l),
(274,304,l),
(103,650,l),
(11,650,l)
);
}
);
width = 506;
}
);
metricLeft = "=A";
metricRight = "=|";
unicode = 89;
},
{
glyphname = Z;
lastChange = "2025-11-10 20:29:46 +0000";
layers = (
{
anchors = (
{
name = bottom;
pos = (232,0);
},
{
name = center;
pos = (232,325);
},
{
name = top;
pos = (232,650);
}
);
layerId = m002;
shapes = (
{
closed = 1;
nodes = (
(10,75,l),
(10,0,l),
(234,0,l),
(234,85,l),
(110,85,l),
(234,575,l),
(234,650,l),
(10,650,l),
(10,565,l),
(135,565,l)
);
}
);
width = 244;
},
{
anchors = (
{
name = bottom;
pos = (288,0);
},
{
name = center;
pos = (288,325);
},
{
name = top;
pos = (288,650);
}
);
layerId = "1B8EDE0E-D46F-48F9-B9C6-2CD34FEA95FD";
shapes = (
{
closed = 1;
nodes = (
(67,68,l),
(67,0,l),
(313,0,l),
(313,76,l),
(153,76,l),
(313,582,l),
(313,650,l),
(67,650,l),
(67,575,l),
(227,575,l)
);
}
);
width = 380;
}
);
metricRight = "=|";
unicode = 90;
},
{
glyphname = a;
lastChange = "2025-11-10 20:34:15 +0000";
layers = (
{
anchors = (
{
name = bottom;
pos = (236,0);
},
{
name = ogonek;
pos = (422,10);
},
{
name = top;
pos = (236,450);
}
);
layerId = m002;
shapes = (
{
closed = 1;
nodes = (
(206,450,l),
(186,423,l),
(186,27,l),
(206,0,l),
(286,0,l),
(286,450,l)
);
},
{
closed = 1;
nodes = (
(143,-12,o),
(182,3,o),
(196,50,c),
(186,27,l),
(186,423,l),
(196,400,l),
(182,447,o),
(153,462,o),
(104,462,cs),
(36,462,o),
(0,428,o),
(0,327,cs),
(0,123,ls),
(0,22,o),
(36,-12,o),
(104,-12,cs)
);
},
{
closed = 1;
nodes = (
(186,135,ls),
(186,88,o),
(166,76,o),
(143,76,cs),
(120,76,o),
(100,89,o),
(100,135,cs),
(100,315,ls),
(100,361,o),
(120,374,o),
(143,374,cs),
(166,374,o),
(186,362,o),
(186,315,cs)
);
}
);
width = 306;
},
{
anchors = (
{
name = bottom;
pos = (238,0);
},
{
name = ogonek;
pos = (429,10);
},
{
name = top;
pos = (239,450);
}
);
layerId = "1B8EDE0E-D46F-48F9-B9C6-2CD34FEA95FD";
shapes = (
{
closed = 1;
nodes = (
(194,275,ls),
(70,275,o),
(30,203,o),
(30,130,cs),
(30,55,o),
(78,-12,o),
(193,-12,cs),
(265,-12,o),
(295,3,o),
(332,45,c),
(323,168,l),
(323,91,o),
(262,60,o),
(208,60,cs),
(156,60,o),
(112,82,o),
(112,132,cs),
(112,174,o),
(143,205,o),
(218,205,c),
(323,205,l),
(323,275,l)
);
},
{
closed = 1;
nodes = (
(410,0,l),
(411,311,ls),
(411,424,o),
(306,462,o),
(230,462,cs),
(166,462,o),
(62,428,o),
(54,319,c),
(136,319,l),
(144,374,o),
(189,388,o),
(230,388,cs),
(260,388,o),
(323,379,o),
(323,307,cs),
(323,56,l),
(332,44,l),
(342,0,l)
);
}
);
width = 473;
}
);
metricLeft = "=o-10";
metricRight = "=n";
unicode = 97;
},
{
glyphname = b;
lastChange = "2025-11-10 20:16:13 +0000";
layers = (
{
anchors = (
{
name = bottom;
pos = (262,0);
},
{
name = center;
pos = (130,544);
},
{
name = top;
pos = (262,450);
}
);
layerId = m002;
shapes = (
{
closed = 1;
nodes = (
(20,0,l),
(100,0,l),
(120,27,l),
(120,650,l),
(20,650,l)
);
},
{
closed = 1;
nodes = (
(270,-12,o),
(306,22,o),
(306,123,cs),
(306,327,ls),
(306,428,o),
(270,462,o),
(202,462,cs),
(153,462,o),
(124,447,o),
(110,400,c),
(120,423,l),
(120,27,l),
(110,50,l),
(124,3,o),
(163,-12,o),
(202,-12,cs)
);
},
{
closed = 1;
nodes = (
(120,362,o),
(140,374,o),
(163,374,cs),
(186,374,o),
(206,361,o),
(206,315,cs),
(206,135,ls),
(206,89,o),
(186,76,o),
(163,76,cs),
(140,76,o),
(120,88,o),
(120,135,cs),
(120,315,ls)
);
}
);
width = 316;
},
{
layerId = "1B8EDE0E-D46F-48F9-B9C6-2CD34FEA95FD";
shapes = (
{
closed = 1;
nodes = (
(130,0,l),
(150,40,l),
(150,658,l),
(62,658,l),
(62,0,l)
);
},
{
closed = 1;
nodes = (
(350,-12,o),
(452,36,o),
(452,192,cs),
(452,256,ls),
(452,413,o),
(348,462,o),
(271,462,cs),
(183,462,o),
(115,414,o),
(111,278,c),
(150,278,l),
(154,362,o),
(205,387,o),
(255,387,cs),
(302,387,o),
(367,362,o),
(367,256,cs),
(367,192,ls),
(367,89,o),
(302,63,o),
(255,63,cs),
(205,63,o),
(154,88,o),
(150,169,c),
(106,169,l),
(110,37,o),
(179,-12,o),
(266,-12,cs)
);
}
);
width = 492;
}
);
metricLeft = n;
metricRight = o;
unicode = 98;
},
{
glyphname = c;
lastChange = "2025-11-10 20:16:13 +0000";
layers = (
{
anchors = (
{
name = bottom;
pos = (221,0);
},
{
name = top;
pos = (221,450);
}
);
layerId = m002;
shapes = (
{
closed = 1;
nodes = (
(196,175,l),
(196,120,ls),
(196,84,o),
(176,71,o),
(153,71,cs),
(130,71,o),
(110,84,o),
(110,120,cs),
(110,318,ls),
(110,364,o),
(130,377,o),
(153,377,cs),
(176,377,o),
(196,364,o),
(196,318,cs),
(196,273,l),
(296,273,l),
(296,283,ls),
(296,415,o),
(235,460,o),
(156,460,cs),
(149,460,ls),
(70,460,o),
(10,415,o),
(10,283,cs),
(10,165,ls),
(10,33,o),
(70,-12,o),
(149,-12,cs),
(156,-12,ls),
(235,-12,o),
(296,33,o),
(296,165,cs),
(296,175,l)
);
}
);
width = 306;
},
{
layerId = "1B8EDE0E-D46F-48F9-B9C6-2CD34FEA95FD";
shapes = (
{
closed = 1;
nodes = (
(327,-12,o),
(424,37,o),
(427,159,c),
(342,159,l),
(339,88,o),
(286,63,o),
(239,63,cs),
(190,63,o),
(126,88,o),
(125,192,cs),
(125,256,ls),
(126,361,o),
(190,387,o),
(239,387,cs),
(286,387,o),
(339,360,o),
(342,288,c),
(427,288,l),
(424,411,o),
(320,462,o),
(239,462,cs),
(149,462,o),
(41,414,o),
(40,256,cs),
(40,192,ls),
(41,37,o),
(149,-12,o),
(239,-12,cs)
);
}
);
width = 467;
}
);
metricLeft = "=o";
metricRight = "=o";
unicode = 99;
},
{
glyphname = d;
lastChange = "2025-11-10 20:16:13 +0000";
layers = (
{
anchors = (
{
name = bottom;
pos = (54,0);
},
{
name = center;
pos = (186,544);
},
{
name = top;
pos = (54,450);
},
{
name = topright;
pos = (497,680);
}
);
layerId = m002;
shapes = (
{
closed = 1;
nodes = (
(196,650,l),
(196,27,l),
(216,0,l),
(296,0,l),
(296,650,l)
);
},
{
closed = 1;
nodes = (
(153,-12,o),
(192,3,o),
(206,50,c),
(196,27,l),
(196,423,l),
(206,400,l),
(192,447,o),
(163,462,o),
(114,462,cs),
(46,462,o),
(10,428,o),
(10,327,cs),
(10,123,ls),
(10,22,o),
(46,-12,o),
(114,-12,cs)
);
},
{
closed = 1;
nodes = (
(196,135,ls),
(196,88,o),
(176,76,o),
(153,76,cs),
(130,76,o),
(110,89,o),
(110,135,cs),
(110,315,ls),
(110,361,o),
(130,374,o),
(153,374,cs),
(176,374,o),
(196,362,o),
(196,315,cs)
);
}
);
width = 316;
},
{
layerId = "1B8EDE0E-D46F-48F9-B9C6-2CD34FEA95FD";
shapes = (
{
closed = 1;
nodes = (
(431,0,l),
(431,658,l),
(343,658,l),
(343,40,l),
(362,0,l)
);
},
{
closed = 1;
nodes = (
(314,-12,o),
(383,37,o),
(387,169,c),
(343,169,l),
(339,89,o),
(288,63,o),
(237,63,cs),
(191,63,o),
(126,88,o),
(125,192,cs),
(125,256,ls),
(126,363,o),
(191,387,o),
(237,387,cs),
(288,387,o),
(339,362,o),
(343,278,c),
(381,278,l),
(378,412,o),
(317,462,o),
(229,462,cs),
(151,462,o),
(41,414,o),
(40,256,cs),
(40,192,ls),
(41,35,o),
(143,-12,o),
(227,-12,cs)
);
}
);
width = 493;
}
);
metricLeft = o;
metricRight = n;
unicode = 100;
},
{
glyphname = e;
lastChange = "2025-11-10 20:16:13 +0000";
layers = (
{
anchors = (
{
name = bottom;
pos = (246,0);
},
{
name = ogonek;
pos = (442,10);
},
{
name = top;
pos = (246,450);
}
);
layerId = m002;
shapes = (
{
closed = 1;
nodes = (
(290,197,l),
(290,281,l),
(13,281,l),
(13,197,l)
);
},
{
closed = 1;
nodes = (
(196,147,l),
(196,120,ls),
(196,84,o),
(176,71,o),
(153,71,cs),
(130,71,o),
(110,84,o),
(110,120,cs),
(110,318,ls),
(110,364,o),
(130,377,o),
(153,377,cs),
(176,377,o),
(196,364,o),
(196,318,cs),
(196,255,l),
(290,255,l),
(290,283,ls),
(290,415,o),
(235,460,o),
(156,460,cs),
(149,460,ls),
(70,460,o),
(10,415,o),
(10,283,cs),
(10,165,ls),
(10,33,o),
(70,-12,o),
(149,-12,cs),
(156,-12,ls),
(235,-12,o),
(290,33,o),
(290,145,cs),
(290,147,l)
);
}
);
width = 300;
},
{
layerId = "1B8EDE0E-D46F-48F9-B9C6-2CD34FEA95FD";
shapes = (
{
closed = 1;
nodes = (
(435,196,l),
(435,252,l),
(400,264,l),
(64,264,l),
(64,196,l)
);
},
{
closed = 1;
nodes = (
(347,-12,o),
(429,50,o),
(432,144,c),
(347,144,l),
(342,89,o),
(293,63,o),
(246,63,cs),
(190,63,o),
(126,92,o),
(125,192,cs),
(125,256,ls),
(126,361,o),
(190,387,o),
(239,387,cs),
(292,387,o),
(350,356,o),
(350,252,c),
(435,252,l),
(434,408,o),
(325,462,o),
(239,462,cs),
(149,462,o),
(41,414,o),
(40,256,cs),
(40,192,ls),
(41,37,o),
(149,-12,o),
(246,-12,cs)
);
}
);
width = 475;
}
);
metricLeft = o;
metricRight = "=o";
unicode = 101;
},
{
glyphname = f;
lastChange = "2025-11-10 20:16:13 +0000";
layers = (
{
anchors = (
{
name = bottom;
pos = (113,0);
},
{
name = top;
pos = (113,680);
}
);
background = {
shapes = (
{
closed = 0;
nodes = (
(56,538,ls),
(56,649,o),
(123,680,o),
(199,680,c)
);
}
);
};
layerId = m002;
shapes = (
{
closed = 1;
nodes = (
(156,0,l),
(156,364,l),
(202,364,l),
(202,450,l),
(156,450,l),
(156,538,ls),
(156,584,o),
(176,597,o),
(199,597,c),
(199,680,l),
(95,680,o),
(56,665,o),
(56,538,cs),
(56,450,l),
(20,450,l),
(20,364,l),
(56,364,l),
(56,0,l)
);
}
);
width = 222;
},
{
anchors = (
{
name = bottom;
pos = (161,0);
},
{
name = top;
pos = (161,685);
}
);
layerId = "1B8EDE0E-D46F-48F9-B9C6-2CD34FEA95FD";
shapes = (
{
closed = 1;
nodes = (
(188,-2,l),
(188,377,l),
(304,377,l),
(304,450,l),
(187,450,l),
(187,553,ls),
(187,583,o),
(201,600,o),
(233,600,cs),
(304,600,l),
(304,680,l),
(217,680,ls),
(146,680,o),
(98,647,o),
(98,559,cs),
(98,450,l),
(32,450,l),
(32,377,l),
(99,377,l),
(99,-2,l)
);
}
);
width = 323;
}
);
unicode = 102;
},
{
glyphname = g;
lastChange = "2025-11-10 20:16:13 +0000";
layers = (
{
anchors = (
{
name = bottom;
pos = (263,-200);
},
{
name = top;
pos = (263,450);
}
);
layerId = m002;
shapes = (
{
closed = 1;
nodes = (
(218,226,ls),
(218,190,o),
(198,177,o),
(175,177,cs),
(152,177,o),
(132,190,o),
(132,226,cs),
(132,318,ls),
(132,364,o),
(152,377,o),
(175,377,cs),
(198,377,o),
(218,364,o),
(218,318,cs)
);
},
{
closed = 1;
nodes = (
(32,139,o),
(92,94,o),
(171,94,cs),
(175,94,l),
(178,94,ls),
(257,94,o),
(318,139,o),
(318,271,cs),
(318,283,ls),
(318,415,o),
(257,460,o),
(178,460,cs),
(171,460,ls),
(92,460,o),
(32,415,o),
(32,283,cs),
(32,271,ls)
);
},
{
closed = 1;
nodes = (
(195,0,l),
(195,82,l),
(151,82,ls),
(72,82,o),
(12,37,o),
(12,-65,c),
(12,-155,o),
(72,-200,o),
(151,-200,cs),
(198,-200,l),
(155,-117,l),
(132,-117,o),
(112,-104,o),
(112,-68,cs),
(112,-59,ls),
(112,-13,o),
(132,0,o),
(155,0,c)
);
},
{
closed = 1;
nodes = (
(92,85,o),
(86,96,o),
(86,106,cs),
(86,122,o),
(93,131,o),
(111,149,c),
(59,198,l),
(40,174,o),
(9,148,o),
(10,98,cs),
(11,62,o),
(57,27,o),
(86,10,c),
(119,70,l)
);
},
{
closed = 1;
nodes = (
(195,-1,l),
(195,-1,o),
(195,0,o),
(195,0,cs),
(218,0,o),
(238,-13,o),
(238,-59,cs),
(238,-68,ls),
(238,-104,o),
(218,-117,o),
(195,-117,cs),
(195,-117,o),
(195,-117,o),
(195,-117,c),
(155,-117,l),
(198,-200,l),
(277,-200,o),
(338,-155,o),
(338,-65,c),
(338,37,o),
(277,82,o),
(198,82,cs),
(195,82,l)
);
},
{
closed = 1;
nodes = (
(312,406,l),
(312,450,l),
(229,450,l),
(229,386,l)
);
}
);
width = 348;
},
{
layerId = "1B8EDE0E-D46F-48F9-B9C6-2CD34FEA95FD";
shapes = (
{
closed = 1;
nodes = (
(348,141,o),
(432,180,o),
(432,303,cs),
(432,424,o),
(342,466,o),
(255,466,cs),
(168,466,o),
(78,419,o),
(78,303,cs),
(78,180,o),
(163,141,o),
(255,141,cs)
);
},
{
closed = 1;
nodes = (
(194,209,o),
(159,238,o),
(159,304,cs),
(159,359,o),
(194,398,o),
(255,398,cs),
(316,398,o),
(351,359,o),
(351,304,cs),
(351,238,o),
(316,209,o),
(255,209,cs)
);
},
{
closed = 1;
nodes = (
(305,12,l),
(305,71,l),
(218,71,ls),
(165,71,o),
(126,87,o),
(126,117,cs),
(126,146,o),
(160,172,o),
(181,193,c),
(139,243,l),
(89,196,o),
(53,162,o),
(53,116,cs),
(53,69,o),
(90,23,o),
(195,17,cs)
);
},
{
closed = 1;
nodes = (
(302,-200,ls),
(426,-200,o),
(472,-133,o),
(472,-66,cs),
(472,9,o),
(426,72,o),
(302,72,cs),
(212,72,ls),
(95,72,o),
(42,9,o),
(42,-66,cs),
(42,-133,o),
(88,-200,o),
(212,-200,cs)
);
},
{
closed = 1;
nodes = (
(154,-130,o),
(120,-107,o),
(120,-64,cs),
(120,-14,o),
(154,2,o),
(206,2,cs),
(307,2,ls),
(360,2,o),
(394,-22,o),
(394,-64,cs),
(394,-99,o),
(360,-130,o),
(307,-130,cs),
(206,-130,ls)
);
},
{
closed = 1;
nodes = (
(394,385,l),
(394,414,o),
(402,432,o),
(460,432,c),
(460,448,l),
(460,495,l),
(460,504,l),
(365,504,o),
(327,445,o),
(327,385,c)
);
}
);
width = 517;
}
);
unicode = 103;
},
{
glyphname = h;
lastChange = "2025-11-10 20:34:15 +0000";
layers = (
{
anchors = (
{
name = bottom;
pos = (144,0);
},
{
name = center;
pos = (12,544);
},
{
name = top;
pos = (144,680);
}
);
layerId = m002;
shapes = (
{
closed = 1;
nodes = (
(120,0,l),
(120,680,l),
(20,680,l),
(20,0,l)
);
},
{
closed = 1;
nodes = (
(140,462,o),
(110,428,o),
(110,308,cs),
(110,0,l),
(120,27,l),
(120,315,ls),
(120,362,o),
(140,374,o),
(163,374,cs),
(186,374,o),
(206,361,o),
(206,315,cs),
(206,0,l),
(306,0,l),
(306,327,ls),
(306,428,o),
(280,462,o),
(212,462,cs)
);
}
);
width = 326;
},
{
layerId = "1B8EDE0E-D46F-48F9-B9C6-2CD34FEA95FD";
shapes = (
{
closed = 1;
nodes = (
(150,0,l),
(150,667,l),
(62,667,l),
(62,0,l)
);
},
{
closed = 1;
nodes = (
(150,278,l),
(153,355,o),
(201,388,o),
(256,388,cs),
(307,388,o),
(364,357,o),
(364,263,cs),
(364,0,l),
(449,0,l),
(449,265,ls),
(449,414,o),
(355,463,o),
(266,463,cs),
(184,463,o),
(119,408,o),
(116,278,c)
);
}
);
width = 511;
}
);
metricRight = n;
unicode = 104;
},
{
glyphname = i;
lastChange = "2025-11-10 20:34:15 +0000";
layers = (
{
anchors = (
{
name = bottom;
pos = (94,0);
}
);
layerId = m002;
shapes = (
{
closed = 1;
nodes = (
(115,532,o),
(128,547,o),
(128,594,cs),
(128,640,o),
(115,654,o),
(67,654,cs),
(19,654,o),
(6,640,o),
(6,594,cs),
(6,547,o),
(19,532,o),
(67,532,cs)
);
},
{
closed = 1;
nodes = (
(117,0,l),
(118,450,l),
(18,450,l),
(17,0,l)
);
}
);
width = 134;
},
{
anchors = (
{
name = bottom;
pos = (124,0);
}
);
layerId = "1B8EDE0E-D46F-48F9-B9C6-2CD34FEA95FD";
shapes = (
{
closed = 1;
nodes = (
(229,0,l),
(229,79,l),
(195,79,ls),
(165,79,o),
(147,96,o),
(147,129,c),
(148,450,l),
(61,450,l),
(60,136,l),
(60,38,o),
(116,0,o),
(190,0,cs)
);
},
{
closed = 1;
nodes = (
(139,533,o),
(159,553,o),
(159,588,cs),
(159,623,o),
(139,643,o),
(103,643,cs),
(67,643,o),
(48,623,o),
(48,588,cs),
(48,553,o),
(67,533,o),
(103,533,cs)
);
}
);
width = 277;
}
);
metricLeft = "=n-14";
metricRight = "=|";
unicode = 105;
},
{
glyphname = j;
lastChange = "2025-11-10 20:16:13 +0000";
layers = (
{
layerId = m002;
shapes = (
{
closed = 1;
nodes = (
(80,-200,o),
(124,-168,o),
(124,-81,cs),
(124,450,l),
(20,450,l),
(20,-67,ls),
(20,-93,o),
(10,-108,o),
(-23,-108,cs),
(-86,-108,l),
(-86,-200,l),
(7,-200,ls)
);
},
{
closed = 1;
nodes = (
(121,532,o),
(134,547,o),
(134,594,cs),
(134,640,o),
(121,654,o),
(73,654,cs),
(25,654,o),
(12,640,o),
(12,594,cs),
(12,547,o),
(25,532,o),
(73,532,cs)
);
}
);
width = 140;
},
{
layerId = "1B8EDE0E-D46F-48F9-B9C6-2CD34FEA95FD";
shapes = (
{
closed = 1;
nodes = (
(87,-200,o),
(134,-174,o),
(134,-67,c),
(133,446,l),
(45,446,l),
(46,-67,l),
(46,-100,o),
(30,-119,o),
(-4,-119,cs),
(-44,-119,l),
(-44,-200,l),
(3,-200,ls)
);
},
{
closed = 1;
nodes = (
(125,533,o),
(145,553,o),
(145,588,cs),
(145,623,o),
(125,643,o),
(89,643,cs),
(53,643,o),
(34,623,o),
(34,588,cs),
(34,553,o),
(53,533,o),
(89,533,cs)
);
}
);
width = 193;
}
);
metricLeft = "=n-106";
metricRight = "=|i";
unicode = 106;
},
{
glyphname = k;
lastChange = "2025-11-10 20:16:13 +0000";
layers = (
{
anchors = (
{
name = bottom;
pos = (190,0);
},
{
name = top;
pos = (190,680);
}
);
layerId = m002;
shapes = (
{
closed = 1;
nodes = (
(20,0,l),
(120,0,l),
(120,680,l),
(20,680,l)
);
},
{
closed = 1;
nodes = (
(190,289,l),
(82,289,l),
(189,0,l),
(299,0,l)
);
},
{
closed = 1;
nodes = (
(42,167,l),
(119,162,l),
(304,450,l),
(180,450,l),
(42,217,l)
);
}
);
width = 324;
},
{
anchors = (
{
name = bottom;
pos = (235,0);
},
{
name = top;
pos = (235,685);
}
);
layerId = "1B8EDE0E-D46F-48F9-B9C6-2CD34FEA95FD";
shapes = (
{
closed = 1;
nodes = (
(62,0,l),
(150,0,l),
(150,680,l),
(62,680,l)
);
},
{
closed = 1;
nodes = (
(252,296,l),
(159,290,l),
(348,0,l),
(444,0,l)
);
},
{
closed = 1;
nodes = (
(139,164,l),
(418,450,l),
(311,450,l),
(82,206,l)
);
}
);
width = 458;
}
);
metricLeft = n;
unicode = 107;
},
{
glyphname = l;
lastChange = "2025-11-10 20:34:15 +0000";
layers = (
{
anchors = (
{
name = bottom;
pos = (93,0);
},
{
name = center;
pos = (93,225);
},
{
name = top;
pos = (93,680);
},
{
name = topright;
pos = (214,680);
}
);
layerId = m002;
shapes = (
{
closed = 1;
nodes = (
(120,0,l),
(120,680,l),
(20,680,l),
(20,0,l)
);
}
);
width = 140;
},
{
layerId = "1B8EDE0E-D46F-48F9-B9C6-2CD34FEA95FD";
shapes = (
{
closed = 1;
nodes = (
(232,-6,l),
(232,73,l),
(197,73,ls),
(167,73,o),
(150,90,o),
(150,123,c),
(151,667,l),
(63,667,l),
(62,131,l),
(62,33,o),
(118,-6,o),
(192,-6,cs)
);
}
);
width = 294;
}
);
metricLeft = "=n";
metricRight = "=|";
unicode = 108;
},
{
glyphname = m;
lastChange = "2025-11-10 20:34:15 +0000";
layers = (
{
anchors = (
{
name = bottom;
pos = (392,0);
},
{
name = top;
pos = (392,450);
}
);
layerId = m002;
shapes = (
{
closed = 1;
nodes = (
(120,0,l),
(120,400,l),
(100,450,l),
(20,450,l),
(20,0,l)
);
},
{
closed = 1;
nodes = (
(140,462,o),
(110,428,o),
(110,308,cs),
(110,0,l),
(120,27,l),
(120,315,ls),
(120,362,o),
(140,374,o),
(163,374,cs),
(186,374,o),
(206,361,o),
(206,315,cs),
(206,0,l),
(306,0,l),
(306,327,ls),
(306,428,o),
(280,462,o),
(212,462,cs)
);
},
{
closed = 1;
nodes = (
(326,462,o),
(276,428,o),
(276,308,cs),
(276,0,l),
(306,27,l),
(306,315,ls),
(306,362,o),
(326,374,o),
(349,374,cs),
(372,374,o),
(392,361,o),
(392,315,cs),
(392,0,l),
(492,0,l),
(492,327,ls),
(492,428,o),
(466,462,o),
(398,462,cs)
);
}
);
width = 512;
},
{
anchors = (
{
name = bottom;
pos = (348,0);
},
{
name = top;
pos = (348,450);
}
);
layerId = "1B8EDE0E-D46F-48F9-B9C6-2CD34FEA95FD";
shapes = (
{
closed = 1;
nodes = (
(150,0,l),
(150,406,l),
(144,408,l),
(135,450,l),
(62,450,l),
(62,0,l)
);
},
{
closed = 1;
nodes = (
(429,0,l),
(429,288,ls),
(428,386,o),
(359,463,o),
(268,463,cs),
(178,463,o),
(115,406,o),
(114,278,c),
(150,278,l),
(153,355,o),
(203,388,o),
(258,388,cs),
(301,388,o),
(344,357,o),
(344,268,cs),
(344,0,l)
);
},
{
closed = 1;
nodes = (
(708,0,l),
(708,270,ls),
(708,414,o),
(619,463,o),
(540,463,cs),
(457,463,o),
(390,408,o),
(387,278,c),
(429,278,l),
(432,355,o),
(482,388,o),
(529,388,cs),
(573,388,o),
(623,357,o),
(623,268,cs),
(623,0,l)
);
}
);
width = 770;
}
);
metricLeft = "=n";
metricRight = "=n";
unicode = 109;
},
{
glyphname = n;
lastChange = "2025-11-10 20:16:13 +0000";
layers = (
{
anchors = (
{
name = bottom;
pos = (217,0);
},
{
name = top;
pos = (217,450);
}
);
layerId = m002;
shapes = (
{
closed = 1;
nodes = (
(120,0,l),
(120,400,l),
(100,450,l),
(20,450,l),
(20,0,l)
);
},
{
closed = 1;
nodes = (
(140,462,o),
(110,428,o),
(110,308,cs),
(110,0,l),
(120,27,l),
(120,315,ls),
(120,362,o),
(140,374,o),
(163,374,cs),
(186,374,o),
(206,361,o),
(206,315,cs),
(206,0,l),
(306,0,l),
(306,327,ls),
(306,428,o),
(280,462,o),
(212,462,cs)
);
}
);
width = 326;
},
{
anchors = (
{
name = bottom;
pos = (250,0);
},
{
name = top;
pos = (250,450);
}
);
layerId = "1B8EDE0E-D46F-48F9-B9C6-2CD34FEA95FD";
shapes = (
{
closed = 1;
nodes = (
(150,0,l),
(150,405,l),
(144,405,l),
(130,450,l),
(62,450,l),
(62,0,l)
);
},
{
closed = 1;
nodes = (
(150,278,l),
(153,355,o),
(205,388,o),
(260,388,cs),
(311,388,o),
(364,357,o),
(364,263,cs),
(364,0,l),
(449,0,l),
(449,265,ls),
(449,414,o),
(360,463,o),
(271,463,cs),
(169,463,o),
(115,408,o),
(112,278,c)
);
}
);
width = 511;
}
);
unicode = 110;
},
{
glyphname = o;
lastChange = "2025-11-10 20:16:13 +0000";
layers = (
{
anchors = (
{
name = bottom;
pos = (246,0);
},
{
name = center;
pos = (246,225);
},
{
name = ogonek;
pos = (456,10);
},
{
name = top;
pos = (246,450);
},
{
name = topright;
pos = (488,450);
}
);
layerId = m002;
shapes = (
{
closed = 1;
nodes = (
(196,120,ls),
(196,84,o),
(176,71,o),
(153,71,cs),
(130,71,o),
(110,84,o),
(110,120,cs),
(110,318,ls),
(110,364,o),
(130,377,o),
(153,377,cs),
(176,377,o),
(196,364,o),
(196,318,cs)
);
},
{
closed = 1;
nodes = (
(10,33,o),
(70,-12,o),
(149,-12,cs),
(153,-12,l),
(156,-12,ls),
(235,-12,o),
(296,33,o),
(296,165,cs),
(296,283,ls),
(296,415,o),
(235,460,o),
(156,460,cs),
(149,460,ls),
(70,460,o),
(10,415,o),
(10,283,cs),
(10,165,ls)
);
}
);
width = 306;
},
{
anchors = (
{
name = bottom;
pos = (242,0);
},
{
name = center;
pos = (242,225);
},
{
name = ogonek;
pos = (455,10);
},
{
name = top;
pos = (242,450);
},
{
name = topright;
pos = (487,450);
}
);
layerId = "1B8EDE0E-D46F-48F9-B9C6-2CD34FEA95FD";
shapes = (
{
closed = 1;
nodes = (
(190,63,o),
(126,88,o),
(125,192,cs),
(125,256,ls),
(126,361,o),
(190,387,o),
(239,387,cs),
(286,387,o),
(352,360,o),
(352,256,cs),
(352,192,ls),
(352,89,o),
(286,63,o),
(239,63,cs)
);
},
{
closed = 1;
nodes = (
(327,-12,o),
(437,38,o),
(437,192,cs),
(437,256,ls),
(437,411,o),
(320,462,o),
(239,462,cs),
(149,462,o),
(41,414,o),
(40,256,cs),
(40,192,ls),
(41,37,o),
(149,-12,o),
(239,-12,cs)
);
}
);
width = 477;
}
);
metricRight = "=|";
unicode = 111;
},
{
glyphname = p;
lastChange = "2025-11-10 20:16:13 +0000";
layers = (
{
anchors = (
{
name = bottom;
pos = (217,0);
},
{
name = top;
pos = (217,450);
}
);
layerId = m002;
shapes = (
{
closed = 1;
nodes = (
(120,-200,l),
(120,424,l),
(100,450,l),
(20,450,l),
(20,-200,l)
);
},
{
closed = 1;
nodes = (
(163,462,o),
(124,447,o),
(110,400,c),
(120,423,l),
(120,27,l),
(110,50,l),
(124,3,o),
(153,-12,o),
(202,-12,cs),
(270,-12,o),
(306,22,o),
(306,123,cs),
(306,327,ls),
(306,428,o),
(270,462,o),
(202,462,cs)
);
},
{
closed = 1;
nodes = (
(120,315,ls),
(120,362,o),
(140,374,o),
(163,374,cs),
(186,374,o),
(206,361,o),
(206,315,cs),
(206,135,ls),
(206,89,o),
(186,76,o),
(163,76,cs),
(140,76,o),
(120,88,o),
(120,135,cs)
);
}
);
width = 316;
},
{
layerId = "1B8EDE0E-D46F-48F9-B9C6-2CD34FEA95FD";
shapes = (
{
closed = 1;
nodes = (
(150,-200,l),
(150,411,l),
(130,450,l),
(62,450,l),
(62,-200,l)
);
},
{
closed = 1;
nodes = (
(348,-12,o),
(452,37,o),
(452,194,cs),
(452,258,ls),
(452,414,o),
(350,462,o),
(266,462,cs),
(174,462,o),
(114,413,o),
(110,281,c),
(150,281,l),
(154,362,o),
(205,387,o),
(255,387,cs),
(302,387,o),
(367,361,o),
(367,258,cs),
(367,194,ls),
(367,88,o),
(302,63,o),
(255,63,cs),
(205,63,o),
(154,88,o),
(150,172,c),
(111,172,l),
(115,36,o),
(183,-12,o),
(271,-12,cs)
);
}
);
width = 492;
}
);
metricLeft = "=n";
metricRight = o;
unicode = 112;
},
{
glyphname = q;
lastChange = "2025-11-10 20:16:13 +0000";
layers = (
{
anchors = (
{
name = bottom;
pos = (258,0);
},
{
name = top;
pos = (258,450);
}
);
layerId = m002;
shapes = (
{
closed = 1;
nodes = (
(296,450,l),
(216,450,l),
(196,423,l),
(196,-200,l),
(296,-200,l)
);
},
{
closed = 1;
nodes = (
(46,462,o),
(10,428,o),
(10,327,cs),
(10,123,ls),
(10,22,o),
(46,-12,o),
(114,-12,cs),
(163,-12,o),
(192,3,o),
(206,50,c),
(196,27,l),
(196,423,l),
(206,400,l),
(192,447,o),
(153,462,o),
(114,462,cs)
);
},
{
closed = 1;
nodes = (
(196,88,o),
(176,76,o),
(153,76,cs),
(130,76,o),
(110,89,o),
(110,135,cs),
(110,315,ls),
(110,361,o),
(130,374,o),
(153,374,cs),
(176,374,o),
(196,362,o),
(196,315,cs),
(196,135,ls)
);
}
);
width = 316;
},
{
anchors = (
{
name = bottom;
pos = (236,0);
},
{
name = top;
pos = (236,450);
}
);
layerId = "1B8EDE0E-D46F-48F9-B9C6-2CD34FEA95FD";
shapes = (
{
closed = 1;
nodes = (
(431,-200,l),
(431,450,l),
(362,450,l),
(343,407,l),
(343,-200,l)
);
},
{
closed = 1;
nodes = (
(310,-12,o),
(378,38,o),
(381,172,c),
(343,172,l),
(339,88,o),
(288,63,o),
(237,63,cs),
(191,63,o),
(126,87,o),
(125,194,cs),
(125,258,ls),
(126,362,o),
(191,387,o),
(237,387,cs),
(288,387,o),
(339,361,o),
(343,281,c),
(387,281,l),
(383,413,o),
(314,462,o),
(227,462,cs),
(143,462,o),
(41,415,o),
(40,258,cs),
(40,194,ls),
(41,36,o),
(144,-12,o),
(222,-12,cs)
);
}
);
width = 493;
}
);
metricLeft = "=o";
metricRight = "=n";
unicode = 113;
},
{
glyphname = r;
lastChange = "2025-11-10 20:16:13 +0000";
layers = (
{
anchors = (
{
name = bottom;
pos = (173,0);
},
{
name = top;
pos = (173,450);
}
);
layerId = m002;
shapes = (
{
closed = 1;
nodes = (
(120,0,l),
(120,411,l),
(100,450,l),
(20,450,l),
(20,0,l)
);
},
{
closed = 1;
nodes = (
(186,450,l),
(163,450,o),
(104,435,o),
(110,388,c),
(120,411,l),
(120,283,l),
(120,330,o),
(140,342,o),
(163,342,c),
(186,342,l)
);
}
);
width = 196;
},
{
anchors = (
{
name = bottom;
pos = (169,0);
},
{
name = top;
pos = (169,450);
}
);
layerId = "1B8EDE0E-D46F-48F9-B9C6-2CD34FEA95FD";
shapes = (
{
closed = 1;
nodes = (
(150,0,l),
(150,399,l),
(145,399,l),
(134,450,l),
(62,450,l),
(62,0,l)
);
},
{
closed = 1;
nodes = (
(150,236,l),
(150,350,o),
(195,369,o),
(267,369,c),
(290,369,l),
(290,450,l),
(262,450,l),
(146,450,o),
(106,366,o),
(106,237,c)
);
}
);
width = 316;
}
);
metricLeft = n;
unicode = 114;
},
{
glyphname = s;
lastChange = "2025-11-10 20:16:13 +0000";
layers = (
{
anchors = (
{
name = bottom;
pos = (183,0);
},
{
name = top;
pos = (183,450);
}
);
layerId = m002;
shapes = (
{
closed = 1;
nodes = (
(12,276,o),
(66,226,o),
(109,190,cs),
(145,160,o),
(188,143,o),
(188,100,cs),
(188,84,o),
(171,71,o),
(152,71,cs),
(133,71,o),
(110,84,o),
(110,145,c),
(10,145,l),
(10,33,o),
(70,-12,o),
(145,-12,cs),
(152,-12,ls),
(227,-12,o),
(281,33,o),
(281,125,c),
(281,175,o),
(243,216,o),
(198,247,cs),
(169,267,o),
(110,298,o),
(110,338,c),
(110,364,o),
(130,377,o),
(149,377,cs),
(168,377,o),
(188,364,o),
(188,303,c),
(278,303,l),
(278,415,o),
(227,460,o),
(152,460,cs),
(145,460,ls),
(70,460,o),
(12,420,o),
(12,344,c)
);
}
);
width = 291;
},
{
anchors = (
{
name = bottom;
pos = (182,0);
},
{
name = top;
pos = (182,450);
}
);
layerId = "1B8EDE0E-D46F-48F9-B9C6-2CD34FEA95FD";
shapes = (
{
closed = 1;
nodes = (
(308,-12,o),
(363,41,o),
(363,114,cs),
(363,194,o),
(302,230,o),
(230,260,cs),
(192,276,ls),
(163,288,o),
(124,305,o),
(124,341,cs),
(124,376,o),
(154,392,o),
(200,392,cs),
(249,392,o),
(280,367,o),
(280,318,c),
(362,318,l),
(362,436,o),
(268,462,o),
(200,462,cs),
(130,462,o),
(43,435,o),
(43,336,cs),
(43,262,o),
(99,225,o),
(152,203,cs),
(193,186,ls),
(228,172,o),
(277,155,o),
(277,114,cs),
(277,82,o),
(250,59,o),
(202,59,cs),
(147,59,o),
(114,84,o),
(113,146,c),
(30,146,l),
(31,44,o),
(86,-12,o),
(204,-12,cs)
);
}
);
width = 393;
}
);
metricRight = "=|";
unicode = 115;
},
{
glyphname = t;
lastChange = "2025-11-10 20:16:13 +0000";
layers = (
{
anchors = (
{
name = center;
pos = (175,225);
},
{
name = top;
pos = (175,559);
},
{
name = topright;
pos = (319,680);
}
);
layerId = m002;
shapes = (
{
closed = 1;
nodes = (
(170,0,l),
(170,559,l),
(91,559,l),
(71,450,l),
(70,0,l)
);
},
{
closed = 1;
nodes = (
(231,363,l),
(231,450,l),
(15,450,l),
(15,362,l)
);
}
);
width = 241;
},
{
layerId = "1B8EDE0E-D46F-48F9-B9C6-2CD34FEA95FD";
shapes = (
{
closed = 1;
nodes = (
(280,0,l),
(280,79,l),
(236,79,ls),
(206,79,o),
(189,96,o),
(189,129,c),
(190,557,l),
(102,557,l),
(101,136,l),
(101,38,o),
(158,0,o),
(231,0,cs)
);
},
{
closed = 1;
nodes = (
(296,376,l),
(296,450,l),
(32,450,l),
(32,375,l)
);
}
);
width = 315;
}
);
unicode = 116;
},
{
glyphname = u;
lastChange = "2025-11-10 20:16:13 +0000";
layers = (
{
anchors = (
{
name = bottom;
pos = (261,0);
},
{
name = ogonek;
pos = (471,10);
},
{
name = top;
pos = (261,450);
},
{
name = topright;
pos = (504,450);
}
);
layerId = m002;
shapes = (
{
closed = 1;
nodes = (
(206,450,l),
(206,50,l),
(216,0,l),
(306,0,l),
(306,450,l)
);
},
{
closed = 1;
nodes = (
(186,-12,o),
(216,22,o),
(216,142,cs),
(216,450,l),
(206,423,l),
(206,135,ls),
(206,88,o),
(186,76,o),
(163,76,cs),
(140,76,o),
(120,89,o),
(120,135,cs),
(120,450,l),
(20,450,l),
(20,123,ls),
(20,22,o),
(46,-12,o),
(114,-12,cs)
);
}
);
width = 326;
},
{
anchors = (
{
name = bottom;
pos = (257,113);
},
{
name = ogonek;
pos = (456,7);
},
{
name = top;
pos = (257,338);
},
{
name = topright;
pos = (488,447);
}
);
layerId = "1B8EDE0E-D46F-48F9-B9C6-2CD34FEA95FD";
shapes = (
{
closed = 1;
nodes = (
(361,450,l),
(361,39,l),
(371,35,l),
(380,0,l),
(449,0,l),
(449,450,l)
);
},
{
closed = 1;
nodes = (
(361,173,l),
(358,96,o),
(310,63,o),
(255,63,cs),
(203,63,o),
(147,94,o),
(147,188,cs),
(147,450,l),
(62,450,l),
(62,186,ls),
(62,37,o),
(155,-12,o),
(244,-12,cs),
(337,-12,o),
(400,43,o),
(403,173,c)
);
}
);
width = 511;
}
);
metricLeft = "=n";
metricRight = n;
unicode = 117;
},
{
glyphname = v;
lastChange = "2025-11-10 20:16:13 +0000";
layers = (
{
anchors = (
{
name = bottom;
pos = (145,0);
},
{
name = top;
pos = (145,450);
}
);
layerId = m002;
shapes = (
{
closed = 1;
nodes = (
(110,1,l),
(190,1,l),
(295,450,l),
(195,450,l),
(123,70,l),
(167,70,l),
(105,450,l),
(5,450,l)
);
}
);
width = 300;
},
{
anchors = (
{
name = bottom;
pos = (221,0);
},
{
name = top;
pos = (221,450);
}
);
layerId = "1B8EDE0E-D46F-48F9-B9C6-2CD34FEA95FD";
shapes = (
{
closed = 1;
nodes = (
(180,1,l),
(258,1,l),
(428,450,l),
(342,450,l),
(200,61,l),
(238,61,l),
(103,450,l),
(10,450,l)
);
}
);
width = 438;
}
);
metricLeft = "=|";
metricRight = "=y";
unicode = 118;
},
{
glyphname = w;
lastChange = "2025-11-10 21:18:17 +0000";
layers = (
{
anchors = (
{
name = bottom;
pos = (347,0);
},
{
name = top;
pos = (347,450);
}
);
layerId = m002;
shapes = (
{
closed = 1;
nodes = (
(115,1,l),
(185,1,l),
(280,450,l),
(190,450,l),
(128,70,l),
(172,70,l),
(110,450,l),
(10,450,l)
);
},
{
closed = 1;
nodes = (
(285,1,l),
(365,1,l),
(470,450,l),
(370,450,l),
(298,70,l),
(342,70,l),
(280,450,l),
(190,450,l)
);
}
);
width = 480;
},
{
anchors = (
{
name = bottom;
pos = (338,0);
},
{
name = top;
pos = (338,450);
}
);
layerId = "1B8EDE0E-D46F-48F9-B9C6-2CD34FEA95FD";
shapes = (
{
closed = 1;
nodes = (
(235,1,l),
(349,367,l),
(326,367,l),
(448,1,l),
(532,1,l),
(665,450,l),
(581,450,l),
(479,82,l),
(497,82,l),
(381,450,l),
(295,450,l),
(186,82,l),
(204,82,l),
(95,450,l),
(11,450,l),
(151,1,l)
);
}
);
width = 676;
}
);
metricLeft = "=V";
metricRight = "=|";
unicode = 119;
},
{
glyphname = x;
lastChange = "2025-11-10 20:16:13 +0000";
layers = (
{
anchors = (
{
name = bottom;
pos = (256,0);
},
{
name = top;
pos = (256,450);
}
);
layerId = m002;
shapes = (
{
closed = 1;
nodes = (
(107,450,l),
(17,450,l),
(192,0,l),
(282,0,l)
);
},
{
closed = 1;
nodes = (
(172,174,l),
(279,450,l),
(189,450,l),
(121,276,l)
);
},
{
closed = 1;
nodes = (
(117,276,l),
(10,0,l),
(100,0,l),
(168,174,l)
);
}
);
width = 292;
},
{
anchors = (
{
name = bottom;
pos = (230,0);
},
{
name = top;
pos = (230,450);
}
);
layerId = "1B8EDE0E-D46F-48F9-B9C6-2CD34FEA95FD";
shapes = (
{
closed = 1;
nodes = (
(443,1,l),
(121,450,l),
(18,450,l),
(339,1,l)
);
},
{
closed = 1;
nodes = (
(267,205,l),
(437,450,l),
(336,450,l),
(213,269,l)
);
},
{
closed = 1;
nodes = (
(116,1,l),
(261,205,l),
(207,269,l),
(17,1,l)
);
}
);
width = 460;
}
);
metricRight = "=|";
unicode = 120;
},
{
glyphname = y;
lastChange = "2025-11-10 20:16:13 +0000";
layers = (
{
anchors = (
{
name = bottom;
pos = (155,0);
},
{
name = top;
pos = (155,450);
}
);
layerId = m002;
shapes = (
{
closed = 1;
nodes = (
(200,1,l),
(305,450,l),
(205,450,l),
(133,70,l),
(177,70,l),
(115,450,l),
(15,450,l),
(120,1,l)
);
},
{
closed = 1;
nodes = (
(113,-199,o),
(162,-160,o),
(175,-104,cs),
(306,451,l),
(219,451,l),
(129,23,l),
(104,-40,ls),
(89,-78,o),
(67,-106,o),
(31,-106,cs),
(-1,-106,o),
(-46,-108,o),
(-46,-106,c),
(-46,-198,l),
(2,-198,o),
(-11,-199,o),
(42,-199,cs)
);
}
);
width = 311;
},
{
anchors = (
{
name = bottom;
pos = (208,0);
},
{
name = top;
pos = (208,450);
}
);
layerId = "1B8EDE0E-D46F-48F9-B9C6-2CD34FEA95FD";
shapes = (
{
closed = 1;
nodes = (
(69,-199,l),
(142,-199,o),
(179,-165,o),
(202,-104,cs),
(410,451,l),
(318,451,l),
(177,62,l),
(222,62,l),
(90,451,l),
(-3,451,l),
(168,-21,l),
(154,22,l),
(126,-53,ls),
(111,-93,o),
(89,-119,o),
(49,-119,c),
(-5,-119,l),
(-5,-199,l)
);
}
);
width = 420;
}
);
unicode = 121;
},
{
glyphname = z;
lastChange = "2025-11-10 20:16:13 +0000";
layers = (
{
anchors = (
{
name = bottom;
pos = (182,0);
},
{
name = center;
pos = (182,225);
},
{
name = top;
pos = (182,450);
}
);
layerId = m002;
shapes = (
{
closed = 1;
nodes = (
(10,70,l),
(10,0,l),
(214,0,l),
(214,80,l),
(102,80,l),
(214,380,l),
(214,450,l),
(10,450,l),
(10,370,l),
(122,370,l)
);
}
);
width = 224;
},
{
anchors = (
{
name = bottom;
pos = (224,0);
},
{
name = center;
pos = (224,225);
},
{
name = top;
pos = (224,450);
}
);
layerId = "1B8EDE0E-D46F-48F9-B9C6-2CD34FEA95FD";
shapes = (
{
closed = 1;
nodes = (
(52,75,l),
(52,0,l),
(393,0,l),
(393,72,l),
(151,72,l),
(393,375,l),
(393,450,l),
(52,450,l),
(52,378,l),
(295,378,l)
);
}
);
width = 445;
}
);
metricLeft = "=n-10";
metricRight = "=|";
unicode = 122;
},
{
glyphname = dieresiscomb;
lastChange = "2025-11-10 20:16:13 +0000";
layers = (
{
anchors = (
{
name = _top;
pos = (146,450);
},
{
name = top;
pos = (146,670);
}
);
layerId = m002;
shapes = (
{
closed = 1;
nodes = (
(102,561,o),
(113,574,o),
(113,614,cs),
(113,653,o),
(102,665,o),
(61,665,cs),
(20,665,o),
(9,653,o),
(9,614,cs),
(9,574,o),
(20,561,o),
(61,561,cs)
);
},
{
closed = 1;
nodes = (
(272,561,o),
(283,574,o),
(283,614,cs),
(283,653,o),
(272,665,o),
(231,665,cs),
(190,665,o),
(179,653,o),
(179,614,cs),
(179,574,o),
(190,561,o),
(231,561,cs)
);
}
);
width = 300;
},
{
anchors = (
{
name = _top;
pos = (146,450);
},
{
name = top;
pos = (146,663);
}
);
layerId = "1B8EDE0E-D46F-48F9-B9C6-2CD34FEA95FD";
shapes = (
{
closed = 1;
nodes = (
(97,554,o),
(107,566,o),
(107,602,cs),
(107,636,o),
(97,647,o),
(61,647,cs),
(25,647,o),
(15,636,o),
(15,602,cs),
(15,566,o),
(25,554,o),
(61,554,cs)
);
},
{
closed = 1;
nodes = (
(268,554,o),
(277,566,o),
(277,602,cs),
(277,636,o),
(268,647,o),
(231,647,cs),
(194,647,o),
(185,636,o),
(185,602,cs),
(185,566,o),
(194,554,o),
(231,554,cs)
);
}
);
width = 300;
}
);
unicode = 776;
},
{
glyphname = dotaccentcomb;
lastChange = "2025-11-10 20:16:13 +0000";
layers = (
{
anchors = (
{
name = _top;
pos = (61,450);
},
{
name = top;
pos = (61,670);
}
);
layerId = m002;
shapes = (
{
closed = 1;
nodes = (
(106,556,o),
(118,570,o),
(118,614,cs),
(118,657,o),
(106,670,o),
(61,670,cs),
(16,670,o),
(4,657,o),
(4,614,cs),
(4,570,o),
(16,556,o),
(61,556,cs)
);
}
);
width = 300;
},
{
anchors = (
{
name = _top;
pos = (61,450);
},
{
name = top;
pos = (61,651);
}
);
layerId = "1B8EDE0E-D46F-48F9-B9C6-2CD34FEA95FD";
shapes = (
{
closed = 1;
nodes = (
(100,550,o),
(111,563,o),
(111,602,cs),
(111,639,o),
(100,651,o),
(61,651,cs),
(22,651,o),
(11,639,o),
(11,602,cs),
(11,563,o),
(22,550,o),
(61,550,cs)
);
}
);
width = 300;
}
);
unicode = 775;
},
{
glyphname = gravecomb;
lastChange = "2025-11-10 20:16:13 +0000";
layers = (
{
anchors = (
{
name = _top;
pos = (171,450);
},
{
name = top;
pos = (171,650);
}
);
layerId = m002;
shapes = (
{
closed = 1;
nodes = (
(82,650,l),
(185,502,l),
(249,502,l),
(177,650,l)
);
}
);
width = 300;
},
{
anchors = (
{
name = _top;
pos = (170,450);
},
{
name = top;
pos = (170,650);
}
);
layerId = "1B8EDE0E-D46F-48F9-B9C6-2CD34FEA95FD";
shapes = (
{
closed = 1;
nodes = (
(87,650,l),
(188,510,l),
(244,510,l),
(172,650,l)
);
}
);
width = 300;
}
);
unicode = 768;
},
{
glyphname = acutecomb;
lastChange = "2025-11-10 20:16:13 +0000";
layers = (
{
anchors = (
{
name = _top;
pos = (101,450);
},
{
name = top;
pos = (161,650);
}
);
layerId = m002;
shapes = (
{
closed = 1;
nodes = (
(92,502,l),
(156,502,l),
(259,650,l),
(164,650,l)
);
}
);
width = 300;
},
{
anchors = (
{
name = _top;
pos = (117,450);
},
{
name = top;
pos = (162,650);
}
);
layerId = "1B8EDE0E-D46F-48F9-B9C6-2CD34FEA95FD";
shapes = (
{
closed = 1;
nodes = (
(95,510,l),
(151,510,l),
(252,650,l),
(167,650,l)
);
}
);
width = 300;
}
);
unicode = 769;
},
{
glyphname = hungarumlautcomb;
lastChange = "2025-11-10 20:16:13 +0000";
layers = (
{
anchors = (
{
name = _top;
pos = (136,450);
},
{
name = top;
pos = (136,640);
}
);
layerId = m002;
shapes = (
{
closed = 1;
nodes = (
(32,502,l),
(86,502,l),
(189,640,l),
(104,640,l)
);
},
{
closed = 1;
nodes = (
(163,502,l),
(217,502,l),
(320,640,l),
(235,640,l)
);
}
);
width = 300;
},
{
anchors = (
{
name = _top;
pos = (151,450);
},
{
name = top;
pos = (151,643);
}
);
layerId = "1B8EDE0E-D46F-48F9-B9C6-2CD34FEA95FD";
shapes = (
{
closed = 1;
nodes = (
(37,510,l),
(86,510,l),
(187,643,l),
(109,643,l)
);
},
{
closed = 1;
nodes = (
(160,510,l),
(209,510,l),
(310,643,l),
(232,643,l)
);
}
);
width = 300;
}
);
unicode = 779;
},
{
glyphname = circumflexcomb;
lastChange = "2025-11-10 20:16:13 +0000";
layers = (
{
anchors = (
{
name = _top;
pos = (154,450);
},
{
name = top;
pos = (154,640);
}
);
layerId = m002;
shapes = (
{
closed = 1;
nodes = (
(186,640,l),
(122,640,l),
(19,502,l),
(84,502,l)
);
},
{
closed = 1;
nodes = (
(289,502,l),
(186,640,l),
(122,640,l),
(224,502,l)
);
}
);
width = 300;
},
{
anchors = (
{
name = _top;
pos = (146,450);
},
{
name = top;
pos = (146,643);
}
);
layerId = "1B8EDE0E-D46F-48F9-B9C6-2CD34FEA95FD";
shapes = (
{
closed = 1;
nodes = (
(141,613,l),
(103,613,l),
(50,539,l),
(88,539,l)
);
},
{
closed = 1;
nodes = (
(242,539,l),
(189,613,l),
(150,613,l),
(204,539,l)
);
}
);
width = 300;
}
);
unicode = 770;
},
{
glyphname = caroncomb;
lastChange = "2025-11-10 20:16:13 +0000";
layers = (
{
anchors = (
{
name = _top;
pos = (154,450);
},
{
name = top;
pos = (154,640);
}
);
layerId = m002;
shapes = (
{
closed = 1;
nodes = (
(122,502,l),
(186,502,l),
(84,640,l),
(19,640,l)
);
},
{
closed = 1;
nodes = (
(122,502,l),
(186,502,l),
(289,640,l),
(224,640,l)
);
}
);
width = 300;
},
{
anchors = (
{
name = _top;
pos = (146,450);
},
{
name = top;
pos = (146,643);
}
);
layerId = "1B8EDE0E-D46F-48F9-B9C6-2CD34FEA95FD";
shapes = (
{
closed = 1;
nodes = (
(116,510,l),
(175,510,l),
(75,643,l),
(16,643,l)
);
},
{
closed = 1;
nodes = (
(116,510,l),
(175,510,l),
(276,643,l),
(217,643,l)
);
}
);
width = 300;
}
);
unicode = 780;
},
{
glyphname = ringcomb;
lastChange = "2025-11-10 20:16:13 +0000";
layers = (
{
anchors = (
{
name = _top;
pos = (107,450);
},
{
name = top;
pos = (106,690);
}
);
layerId = m002;
shapes = (
{
closed = 1;
nodes = (
(155,508,o),
(177,530,o),
(177,579,cs),
(177,628,o),
(155,650,o),
(106,650,cs),
(57,650,o),
(35,628,o),
(35,579,cs),
(35,530,o),
(57,508,o),
(106,508,cs)
);
},
{
closed = 1;
nodes = (
(82,549,o),
(76,555,o),
(76,579,cs),
(76,603,o),
(82,609,o),
(106,609,cs),
(130,609,o),
(136,603,o),
(136,579,cs),
(136,555,o),
(130,549,o),
(106,549,cs)
);
}
);
width = 300;
},
{
anchors = (
{
name = _top;
pos = (107,450);
},
{
name = top;
pos = (106,677);
}
);
layerId = "1B8EDE0E-D46F-48F9-B9C6-2CD34FEA95FD";
shapes = (
{
closed = 1;
nodes = (
(153,511,o),
(174,532,o),
(174,579,cs),
(174,626,o),
(153,647,o),
(106,647,cs),
(59,647,o),
(38,626,o),
(38,579,cs),
(38,532,o),
(59,511,o),
(106,511,cs)
);
},
{
closed = 1;
nodes = (
(82,550,o),
(77,555,o),
(77,579,cs),
(77,603,o),
(82,608,o),
(106,608,cs),
(130,608,o),
(135,603,o),
(135,579,cs),
(135,555,o),
(130,550,o),
(106,550,cs)
);
}
);
width = 300;
}
);
unicode = 778;
},
{
glyphname = tildecomb;
lastChange = "2025-11-10 20:16:13 +0000";
layers = (
{
anchors = (
{
name = _top;
pos = (145,450);
},
{
name = top;
}
);
layerId = m002;
shapes = (
{
closed = 1;
nodes = (
(83,525,l),
(89,553,o),
(104,559,o),
(116,559,cs),
(143,559,o),
(159,525,o),
(201,525,cs),
(259,525,o),
(290,575,o),
(290,636,c),
(232,636,l),
(226,608,o),
(211,601,o),
(199,601,cs),
(172,601,o),
(156,635,o),
(114,635,cs),
(56,635,o),
(24,585,o),
(24,525,c)
);
}
);
width = 300;
},
{
anchors = (
{
name = _top;
pos = (148,450);
},
{
name = top;
}
);
layerId = "1B8EDE0E-D46F-48F9-B9C6-2CD34FEA95FD";
shapes = (
{
closed = 1;
nodes = (
(81,532,l),
(85,558,o),
(98,567,o),
(113,567,cs),
(142,567,o),
(161,532,o),
(201,532,cs),
(252,532,o),
(283,574,o),
(283,632,c),
(232,632,l),
(228,607,o),
(214,597,o),
(200,597,cs),
(171,597,o),
(152,632,o),
(111,632,cs),
(61,632,o),
(29,590,o),
(29,532,c)
);
}
);
width = 300;
}
);
unicode = 771;
},
{
glyphname = cedillacomb;
lastChange = "2025-11-10 20:16:13 +0000";
layers = (
{
anchors = (
{
name = _bottom;
pos = (192,0);
},
{
name = bottom;
pos = (192,-188);
}
);
layerId = m002;
shapes = (
{
closed = 1;
nodes = (
(277,-197,o),
(320,-176,o),
(320,-119,cs),
(320,-63,o),
(277,-41,o),
(238,-41,cs),
(227,-41,o),
(209,-41,o),
(194,-45,c),
(194,-82,l),
(209,-78,o),
(224,-78,o),
(231,-78,cs),
(250,-79,o),
(271,-90,o),
(271,-119,cs),
(271,-148,o),
(250,-160,o),
(231,-161,cs),
(224,-161,o),
(209,-161,o),
(194,-157,c),
(194,-193,l),
(209,-198,o),
(227,-198,o),
(238,-198,cs)
);
},
{
closed = 1;
nodes = (
(194,-45,l),
(245,-45,l),
(269,-10,l),
(218,-10,l)
);
}
);
width = 300;
},
{
anchors = (
{
name = _bottom;
pos = (190,-1);
},
{
name = bottom;
pos = (144,-141);
}
);
layerId = "1B8EDE0E-D46F-48F9-B9C6-2CD34FEA95FD";
shapes = (
{
closed = 1;
nodes = (
(277,-197,o),
(320,-176,o),
(320,-119,cs),
(320,-63,o),
(277,-41,o),
(238,-41,cs),
(225,-41,o),
(209,-43,o),
(194,-47,c),
(194,-78,l),
(210,-74,o),
(226,-74,o),
(234,-74,cs),
(255,-75,o),
(277,-87,o),
(277,-119,cs),
(277,-151,o),
(255,-164,o),
(234,-165,cs),
(226,-165,o),
(210,-165,o),
(194,-161,c),
(194,-193,l),
(209,-198,o),
(227,-198,o),
(238,-198,cs)
);
},
{
closed = 1;
nodes = (
(194,-47,l),
(239,-47,l),
(263,-10,l),
(218,-10,l)
);
}
);
width = 300;
}
);
unicode = 807;
},
{
glyphname = ogonek;
lastChange = "2025-11-10 20:16:13 +0000";
layers = (
{
layerId = m002;
shapes = (
{
closed = 1;
nodes = (
(-143,-127,o),
(-86,-159,o),
(-21,-159,c),
(-21,-90,l),
(-49,-90,o),
(-73,-73,o),
(-73,-46,cs),
(-73,-21,o),
(-49,0,o),
(-19,0,c),
(-31,27,l),
(-79,22,o),
(-143,-12,o),
(-143,-76,cs)
);
}
